PathFileType	4	(X/Y/Z)	48_1_3_p0_0-306_filt_butterworth.trc
DataRate	CameraRate	NumFrames	NumMarkers	Units	OrigDataRate	OrigDataStartFrame	OrigNumFrames
59.0	59.0	5	27	m	59.0	0	306
Frame#	Time	RHip			RKnee			RAnkle			RBigToe			RSmallToe			RHeel			LHip			LKnee			LAnkle			LBigToe			LSmallToe			LHeel			Neck			Head			Nose			RShoulder			RElbow			RWrist			RThumb			RIndex			RPinky			LShoulder			LElbow			LWrist			LThumb			LIndex			LPinky			
		X1	Y1	Z1	X2	Y2	Z2	X3	Y3	Z3	X4	Y4	Z4	X5	Y5	Z5	X6	Y6	Z6	X7	Y7	Z7	X8	Y8	Z8	X9	Y9	Z9	X10	Y10	Z10	X11	Y11	Z11	X12	Y12	Z12	X13	Y13	Z13	X14	Y14	Z14	X15	Y15	Z15	X16	Y16	Z16	X17	Y17	Z17	X18	Y18	Z18	X19	Y19	Z19	X20	Y20	Z20	X21	Y21	Z21	X22	Y22	Z22	X23	Y23	Z23	X24	Y24	Z24	X25	Y25	Z25	X26	Y26	Z26	X27	Y27	Z27	
0	0.0	0.1923637353867514	0.7619118798355963	0.6947251914734031	0.16318436726238825	0.3051055735403604	0.6654302350435448	0.1325466166557315	-0.055128340972159184	0.6364757519483503	0.1137524752463303	-0.07107037909674585	0.49931163634897036	0.17254107200882612	-0.05980832276453433	0.48123356112149523	0.11636134788315393	-0.1478732266756168	0.7158407798467193	-0.039543369929157295	0.7458401120473429	0.7453473925092342	-0.042741895668414784	0.3200470699248633	0.7103379758914208	-0.042724854837158155	-0.06678777238221412	0.6798775083203665	-0.059180684222914316	-0.02443406330384547	0.4876339885118025	-0.10192635844214164	-0.05061840417482244	0.5455486136965959	-0.021402766187545268	-0.11881051785419841	0.7010376427166964	0.1012613349754529	1.3004605110668759	0.7565071464526258	0.11004020138738632	1.5576374239143636	0.7544823421388023	0.07820504086361094	1.4386016732537037	0.6628820351018012	0.24262949144026294	1.2030605557534106	0.7050449677872335	0.2651329459682496	0.9703196182224681	0.6115289926999503	0.13339006278778842	0.8150059911603987	0.5224051023944036	0.030057863742143337	0.7518971797049273	0.5215113057378945	0.02488075120682659	0.7250579418145253	0.5057491283153139	0.055119686948888094	0.7094183888267979	0.5154410247304246	-0.07053147639264856	1.225996505495624	0.7350276161954037	-0.11535688209783902	0.9788674665076189	0.6882187657065661	-0.014792669719650183	0.81233156268667	0.5350358661760672	0.05705559107270211	0.7590143410386125	0.5209440674576866	0.056441626506494195	0.7152308209995099	0.5160843113704335	0.04567899556719617	0.70155180418782	0.5143571153322092	
1	0.0169491525423728	0.1931928148786846	0.7616819138714177	0.6938198716284739	0.15961577673753574	0.30979051993441464	0.6570899410985902	0.13342356366331878	-0.055220025198302755	0.6367078156388899	0.11161962315698003	-0.0638178760574661	0.49040657608099025	0.1719406109362404	-0.05531642168114457	0.4785655333817101	0.1158881547498036	-0.14828086364721182	0.7171894660926661	-0.040034873497444376	0.7452270968236717	0.7449998043423616	-0.042929129214884794	0.3190727883422022	0.7101364382863294	-0.04212902526065632	-0.06574018856459019	0.6799954991976029	-0.059320418902524034	-0.0245694267752071	0.48742623935348234	-0.10294928076095312	-0.05160691637987136	0.5497050766980223	-0.020716174301604665	-0.11921505246023487	0.7015094212444697	0.10123297420204605	1.3007328332898918	0.7564842800048932	0.1106663273018775	1.5574257152843718	0.7559439192197883	0.07821746357693167	1.4396115652236547	0.663261249576458	0.24279364416931784	1.20456506863992	0.7056164379126082	0.26610360893124996	0.972781562642282	0.6049948192176415	0.13056489448037373	0.8158886080331768	0.5157893588887844	0.02801872430367359	0.7518663335126722	0.5156178236405655	0.02565219881815835	0.730839474000997	0.5066288865267129	0.05459153395734293	0.708901021448324	0.5156087865605695	-0.07041342883022884	1.2260253310703257	0.7351072499299108	-0.11570340441814411	0.9784785054706632	0.6872985116125184	-0.01127264291477277	0.814622504093873	0.5291444480311107	0.06084028829183517	0.7635003526654429	0.5121616330944463	0.058940257288534116	0.7157503442654399	0.5158235260622706	0.04336149312763979	0.704712284347954	0.5073311004388784	
2	0.0338983050847457	0.1937982165373472	0.7613597326919114	0.6931882763850997	0.15676941286981322	0.3135274349126014	0.6503051642238207	0.1342336832262748	-0.05531386981771805	0.636917604793114	0.110128762705764	-0.06014060294164765	0.48683367746289213	0.17204019397338385	-0.054244065799963485	0.47914900393178694	0.11567387078738235	-0.1488362270260441	0.7186185152870288	-0.04040335255035296	0.744712188816732	0.7445027452600378	-0.04308759361133749	0.3182694500486418	0.7099782839965082	-0.04165790722047427	-0.06485834555137072	0.6800941766238305	-0.05936503610355677	-0.024558117978954158	0.4872941920377696	-0.10330559294514158	-0.051485172871472126	0.551371820762799	-0.020188282662344226	-0.11959693332097122	0.7019037218964856	0.10122535324974659	1.3007762115076391	0.7564898716056354	0.11091433262602701	1.5573343920649318	0.7564899507525913	0.07856056915781728	1.440027309621821	0.6627988915442631	0.24283611510364672	1.2055546046104935	0.7058968566933882	0.266700743647174	0.9743504325271849	0.600853355176886	0.1291558963730874	0.8162653337025131	0.5124642351856394	0.02748693542004121	0.750986113124098	0.5136668570706975	0.02675063869407953	0.733776730324619	0.5086261212554267	0.05483619617138189	0.7087494014792223	0.5156342646421969	-0.07035336093314211	1.2260349928382732	0.7351522601668177	-0.1159329493587107	0.9786017777817415	0.6867015152101944	-0.008990497634487074	0.8165314475393208	0.5253929151826965	0.06318190705368766	0.7659474736279179	0.5084644029771064	0.06085383153535285	0.7162124319139356	0.515717864042716	0.041946411039883856	0.7063561090067032	0.5051462993968352	
3	0.0508474576271186	0.19420150682377788	0.7609599612528966	0.6927956445717257	0.15458817148101534	0.31639488220032164	0.644951240038361	0.13497593177523798	-0.055408764142739694	0.6371056872358338	0.10915143119918012	-0.05924747968286923	0.48730442008955943	0.1726189461380231	-0.05568226795503729	0.4820414740448514	0.11569061971614188	-0.14951776641384257	0.7201037245877814	-0.040659656249157766	0.7442876497255035	0.7438757690378628	-0.043218698060894505	0.3176245718161703	0.709859791463276	-0.041299333245198244	-0.06412955935950164	0.6801752443693757	-0.059338294049610836	-0.02443941023587963	0.48721986897867325	-0.10316730848349484	-0.0505803368148811	0.5511749171754208	-0.019802592265565543	-0.11995444094366726	0.7022269237581368	0.10123266532103653	1.300651155105589	0.756515293682611	0.1108737441677376	1.5573358177134813	0.7563412885732965	0.07911956934901594	1.440009690897222	0.6616765315445916	0.2427923710823121	1.206122281657885	0.7059578690205306	0.26699914172079303	0.9751972034854793	0.5986447463639034	0.12886927297636536	0.8162302465263547	0.51174576039283	0.028113015722316132	0.7494789430856587	0.5147678542697331	0.028087825754095956	0.7344038012570326	0.5114598759077316	0.05561088277616138	0.7088987684463794	0.5155645682944625	-0.07033857303684792	1.2260286987458184	0.7351710494779733	-0.11606466302405355	0.9790617679494603	0.6863779177743291	-0.007721055002452052	0.8180708153258861	0.5234000057952131	0.06437115150228531	0.7667708067228161	0.5086969550725795	0.06225597659147044	0.7165812659750415	0.5157289286953552	0.04126936095809673	0.7067814184252044	0.5066485991960763	
4	0.0677966101694915	0.19442425219901532	0.7604972245101927	0.6926072150167975	0.15301494839293683	0.3184714255229765	0.6409035041613358	0.13564926574084674	-0.05550359748570234	0.6372726307918608	0.10855916594372636	-0.060347426214709815	0.490530283555875	0.17345599244792476	-0.05872204098041184	0.48630044499402936	0.11591052525633384	-0.1503039314123367	0.721620891152898	-0.040814633755133535	0.7439457412489665	0.7431384294514367	-0.04332385176667747	0.3171256704167753	0.7097772391279518	-0.04104113586341451	-0.06354114600592826	0.6802404062045648	-0.05926395096428455	-0.024252576866776995	0.4871852925902022	-0.10270644086480077	-0.04921957137535485	0.549740437220382	-0.01954260410707021	-0.12028585583558339	0.7024854059148158	0.10124910361839791	1.300418173469213	0.756551918663578	0.11063408873491203	1.557402355687458	0.7557187845179898	0.07977967589327575	1.4397194934988777	0.6600757401168187	0.24269787894437655	1.206361217774848	0.7058711197849926	0.26707359475687853	0.9754928511254661	0.5979091385649138	0.12941122880064365	0.8158774248626486	0.5129499636182177	0.02954748384156829	0.7475672479438074	0.5180302634791147	0.029575514917713458	0.7332547772698792	0.5148491938899036	0.05667280295683779	0.7092843618766824	0.5154468068365224	-0.07035636547680583	1.2260096567393126	0.7351720204352272	-0.11611769151868749	0.9796829604824263	0.6862778605796576	-0.007239136142326656	0.8192530297564418	0.522784458033049	0.06469872578165381	0.7663854547469156	0.5117038673477784	0.06322031980140694	0.7168210284788029	0.5158183234037736	0.04116595453644678	0.7062863528645935	0.5106838868265979	
